<svg width="512" height="512" viewBox="0 0 512 512" fill="none" xmlns="http://www.w3.org/2000/svg">
<rect width="512" height="512" fill="white"/>
<g clip-path="url(#clip0_1_3)">
<path d="M134.746 207.373L380.37 273.188C362.196 341.015 292.478 381.267 224.65 363.093C156.823 344.918 116.571 275.2 134.746 207.373Z" fill="#252121"/>
<path d="M314.665 205.324C314.432 192.109 324.957 181.207 338.173 180.974L365.094 180.501C366.746 180.472 368.108 181.787 368.138 183.439L368.611 210.36C368.843 223.576 358.318 234.478 345.102 234.71L318.182 235.184C316.53 235.213 315.167 233.897 315.138 232.245L314.665 205.324Z" fill="#252121"/>
<path d="M194.318 207.373C170.107 196.758 159.086 168.526 169.701 144.315L175.722 130.583C177.049 127.556 180.578 126.179 183.604 127.505L198.684 134.117C222.895 144.732 233.917 172.964 223.302 197.175L217.281 210.908C215.954 213.934 212.425 215.312 209.399 213.985L194.318 207.373Z" fill="#252121"/>
<rect x="245.436" y="188.559" width="35.8996" height="35.8996" rx="17.9498" transform="rotate(-1.00755 245.436 188.559)" fill="#252121"/>
<path d="M264.658 287.363C262.308 284.062 257.727 283.291 254.427 285.641C251.126 287.991 250.355 292.572 252.705 295.873L264.658 287.363ZM252.705 295.873L279.784 333.906L291.737 325.396L264.658 287.363L252.705 295.873Z" fill="white"/>
<path d="M322.026 303.816C325.327 301.466 326.098 296.885 323.748 293.584C321.398 290.283 316.817 289.513 313.516 291.863L322.026 303.816ZM313.516 291.863L271.256 321.951L279.767 333.904L322.026 303.816L313.516 291.863Z" fill="white"/>
</g>
<defs>
<clipPath id="clip0_1_3">
<rect width="278.532" height="270.897" fill="white" transform="translate(101.838 125.103)"/>
</clipPath>
</defs>
</svg>
